<svg width="59" height="50" fill="none" xmlns="http://www.w3.org/2000/svg"><path d="M8.94 9.417a4.708 4.708 0 1 0 0-9.416 4.708 4.708 0 0 0 0 9.416ZM29.07 21.9v.007c.012 0 .022-.004.034-.004.011 0 .022.004.033.004V21.9a3.254 3.254 0 0 0 0-6.505v-.007l-.033.003c-.012 0-.022-.003-.034-.003v.007a3.254 3.254 0 0 0 0 6.505ZM49.267 9.417A4.709 4.709 0 1 0 49.268 0a4.709 4.709 0 0 0 0 9.417Z" fill="#000"/><path d="M53.444 11.648h-6.221a6.388 6.388 0 0 0-5.688 3.481l-3.808 11.138a.922.922 0 0 1-1.444.255l-2.369-2.05a3.832 3.832 0 0 0-2.604-1.021h-4.413c-.966 0-1.895.364-2.604 1.02l-2.368 2.051a.92.92 0 0 1-1.445-.255l-3.808-11.138a6.388 6.388 0 0 0-5.688-3.481h-6.22C2.482 11.648 0 14.13 0 16.413v15.826c0 1.14.924 2.066 2.065 2.066h1.442l.785 13.497c0 1.214.985 2.198 2.199 2.198h4.802a2.199 2.199 0 0 0 2.199-2.198l.785-13.497-.01-9.637a.33.33 0 0 1 .623-.15l3.021 7.436a2.556 2.556 0 0 0 4.009.713l2.89-2.13a.336.336 0 0 1 .357-.061c.12.054.198.172.198.303l.01 8.356.544 9.344c0 .84.682 1.521 1.523 1.521h3.323c.841 0 1.523-.681 1.523-1.521l.543-9.344.01-8.356c0-.13.078-.25.199-.303.12-.05.26-.027.357.062l2.89 2.129a2.555 2.555 0 0 0 4.009-.713l3.02-7.436a.33.33 0 0 1 .624.15l-.01 9.637.785 13.497c0 1.214.985 2.198 2.199 2.198h4.802a2.199 2.199 0 0 0 2.2-2.198l.785-13.497h1.441a2.065 2.065 0 0 0 2.065-2.066V16.413c0-2.283-2.482-4.765-4.763-4.765Z" fill="#000"/></svg>