<svg width="50" height="42" fill="none" xmlns="http://www.w3.org/2000/svg"><path d="M45.778 17.974c.41-1.375.613-2.835.613-4.42 0-3.624-1.337-6.97-3.763-9.422C40.13 1.61 36.63.222 32.768.222c-3.714 0-7.201 1.735-9.573 4.654C20.825 1.956 17.337.22 13.623.22c-3.862 0-7.364 1.39-9.86 3.911C1.336 6.583 0 9.93 0 13.554c0 7.308 4.27 11.662 12.682 17.605 5.49 3.879 8.378 7.135 9.134 8.308l1.375 2.197 1.38-2.19c.013-.021 1.312-2.003 4.922-5.065.341.252.695.507 1.064.768 3.444 2.433 4.664 4.168 4.752 4.295l1.36 2.307 1.392-2.305c.08-.12 1.299-1.857 4.752-4.297C47.58 31.81 50 29.315 50 25.028c0-3.137-1.666-5.741-4.222-7.054ZM23.196 35.971c-1.433-1.63-4.111-4.281-8.633-7.476-4.487-3.17-7.112-5.44-8.778-7.591-1.746-2.253-2.524-4.52-2.524-7.35 0-2.76 1.001-5.291 2.82-7.128 1.906-1.926 4.514-2.944 7.541-2.944 3.353 0 6.469 1.954 8.132 5.1l1.441 2.726 1.442-2.726c1.663-3.146 4.779-5.1 8.131-5.1 3.028 0 5.636 1.018 7.542 2.944 1.819 1.837 2.82 4.368 2.82 7.128 0 1.281-.162 2.448-.492 3.536a9.16 9.16 0 0 0-.766-.033c-1.954 0-3.801.793-5.187 2.159-1.386-1.366-3.233-2.16-5.187-2.16-4.634 0-8.129 3.428-8.129 7.972 0 3.007 1.193 5.131 3.549 7.294-1.707 1.482-2.914 2.728-3.722 3.65Zm17.735-3.457c-2.011 1.421-3.368 2.648-4.246 3.556-.878-.908-2.235-2.135-4.246-3.556-4.506-3.183-5.809-4.862-5.809-7.486 0-2.773 2.002-4.71 4.868-4.71 1.539 0 2.974.906 3.745 2.365l1.442 2.726 1.441-2.726c.772-1.459 2.207-2.365 3.746-2.365 2.865 0 4.867 1.937 4.867 4.71 0 2.624-1.303 4.303-5.808 7.486Z" fill="#000"/></svg>