<svg width="50" height="48" fill="none" xmlns="http://www.w3.org/2000/svg"><path d="M34.578 16.279A15.347 15.347 0 0 0 25 19.622a15.346 15.346 0 0 0-9.578-3.343C6.918 16.279 0 23.197 0 31.7s6.918 15.422 15.422 15.422c3.616 0 6.945-1.252 9.578-3.344a15.346 15.346 0 0 0 9.578 3.344C43.082 47.123 50 40.204 50 31.7c0-8.504-6.918-15.422-15.422-15.422ZM15.422 43.862c-6.706 0-12.161-5.456-12.161-12.161 0-6.706 5.455-12.161 12.161-12.161 2.707 0 5.21.89 7.233 2.39a15.35 15.35 0 0 0-3.499 9.77 15.35 15.35 0 0 0 3.499 9.77 12.097 12.097 0 0 1-7.233 2.392ZM22.417 31.7c0-2.82.965-5.42 2.583-7.486a12.101 12.101 0 0 1 2.583 7.486A12.1 12.1 0 0 1 25 39.186a12.101 12.101 0 0 1-2.583-7.485Zm12.161 12.16a12.1 12.1 0 0 1-7.233-2.39 15.35 15.35 0 0 0 3.499-9.77 15.35 15.35 0 0 0-3.499-9.77 12.097 12.097 0 0 1 7.233-2.392c6.706 0 12.161 5.456 12.161 12.162 0 6.705-5.455 12.16-12.161 12.16ZM21.625 13.671c1.026.794 2.428 1.705 2.487 1.744l.888.576.888-.576c.059-.039 1.46-.95 2.487-1.744 2.363-1.828 5.077-4.305 5.077-7.26A5.54 5.54 0 0 0 27.918.877c-1.04 0-2.05.295-2.918.833a5.535 5.535 0 0 0-2.918-.833 5.54 5.54 0 0 0-5.533 5.534c0 2.955 2.713 5.432 5.076 7.26Zm.457-9.533c.648 0 1.268.279 1.7.765L25 6.273l1.218-1.37a2.276 2.276 0 0 1 1.7-.765 2.276 2.276 0 0 1 2.273 2.273c0 1.15-1.283 2.725-3.811 4.681-.428.33-.947.696-1.38.993a31.177 31.177 0 0 1-1.38-.993c-2.529-1.956-3.81-3.53-3.81-4.68a2.276 2.276 0 0 1 2.272-2.274Z" fill="#000"/></svg>