<svg width="59" height="50" viewBox="0 0 59 50" fill="none" xmlns="http://www.w3.org/2000/svg">
<path d="M8.94031 9.41744C11.5415 9.41744 13.6487 7.30844 13.6487 4.70923C13.6487 2.10729 11.5415 0 8.94031 0C6.33838 0 4.2312 2.10729 4.2312 4.70923C4.23109 7.30844 6.33838 9.41744 8.94031 9.41744Z" fill="black"/>
<path d="M29.0703 21.8997V21.9068C29.0818 21.9068 29.0924 21.9032 29.1038 21.9032C29.1153 21.9032 29.1258 21.9068 29.1372 21.9068V21.8997C30.9064 21.8637 32.3297 20.4245 32.3297 18.6482C32.3297 16.8692 30.9064 15.431 29.1372 15.3949V15.3878C29.1257 15.3878 29.1151 15.3913 29.1038 15.3913C29.0924 15.3913 29.0818 15.3878 29.0703 15.3878V15.3949C27.301 15.431 25.8778 16.8692 25.8778 18.6482C25.8777 20.4245 27.301 21.8637 29.0703 21.8997Z" fill="black"/>
<path d="M49.2671 9.41744C51.8691 9.41744 53.9764 7.30844 53.9764 4.70923C53.9764 2.10729 51.8691 0 49.2671 0C46.666 0 44.5587 2.10729 44.5587 4.70923C44.5588 7.30844 46.6661 9.41744 49.2671 9.41744Z" fill="black"/>
<path d="M53.4436 11.6479H49.3154H47.2231C44.8236 11.6479 42.6265 12.9929 41.535 15.1292L37.7272 26.2667C37.596 26.5221 37.3523 26.7033 37.0688 26.7535C36.7853 26.8038 36.4949 26.7184 36.2827 26.5221L33.914 24.4712C33.2054 23.8153 32.276 23.451 31.3103 23.451H29.1037H26.897C25.9314 23.451 25.002 23.8153 24.2934 24.4712L21.9247 26.5221C21.7126 26.7184 21.4221 26.8038 21.1387 26.7535C20.8554 26.7033 20.6115 26.5221 20.4803 26.2667L16.6724 15.1292C15.581 12.9929 13.3839 11.6479 10.9845 11.6479H8.89197H4.76368C2.48223 11.6479 0 14.1301 0 16.4126V32.239C0 33.3797 0.924269 34.3048 2.065 34.3048C2.62649 34.3048 2.065 34.3048 3.50677 34.3048L4.29188 47.8022C4.29188 49.0159 5.27686 50 6.49057 50C7.00284 50 7.94735 50 8.89185 50C9.83636 50 10.7809 50 11.2931 50C12.5068 50 13.4918 49.0159 13.4918 47.8022L14.2769 34.3048L14.2673 24.6681C14.2673 24.5158 14.3712 24.3846 14.5199 24.3477C14.6687 24.3124 14.8209 24.3828 14.8905 24.5184L17.9114 31.9537C18.2759 32.6649 18.9518 33.1649 19.7388 33.3048C20.5257 33.4448 21.3329 33.2089 21.92 32.6667L24.8105 30.5375C24.9074 30.4486 25.0473 30.4256 25.1671 30.4758C25.2877 30.5296 25.3652 30.6484 25.3652 30.7786L25.3758 39.1354L25.9189 48.479C25.9189 49.3188 26.6011 50 27.4417 50C27.7956 50 28.4495 50 29.1036 50C29.7576 50 30.4116 50 30.7654 50C31.606 50 32.2881 49.3188 32.2881 48.479L32.8313 39.1354L32.8419 30.7786C32.8419 30.6483 32.9193 30.5296 33.0399 30.4758C33.1597 30.4256 33.2996 30.4486 33.3965 30.5375L36.2872 32.6667C36.8742 33.2089 37.6814 33.4448 38.4683 33.3048C39.2553 33.1649 39.9313 32.6649 40.2956 31.9537L43.3166 24.5184C43.3861 24.3829 43.5384 24.3124 43.6871 24.3477C43.8359 24.3846 43.9397 24.5157 43.9397 24.6681L43.9301 34.3048L44.7152 47.8022C44.7152 49.0159 45.7002 50 46.914 50C47.4264 50 48.3708 50 49.3153 50C50.2598 50 51.2043 50 51.7164 50C52.9303 50 53.9154 49.0159 53.9154 47.8022L54.7005 34.3048C56.1422 34.3048 55.5806 34.3048 56.1422 34.3048C57.283 34.3048 58.2072 33.3797 58.2072 32.239V16.4126C58.2073 14.1301 55.7251 11.6479 53.4436 11.6479Z" fill="black"/>
</svg>
