<svg width="42" height="42" viewBox="0 0 42 42" fill="none" xmlns="http://www.w3.org/2000/svg">
<path d="M21 0.249969C9.54163 0.249969 0.166626 9.60414 0.166626 21.125C0.166626 31.5417 7.79162 40.1875 17.75 41.75V27.1667H12.4583V21.125H17.75V16.5208C17.75 11.2916 20.8541 8.41664 25.625 8.41664C27.8958 8.41664 30.2708 8.81247 30.2708 8.81247V13.9583H27.6458C25.0625 13.9583 24.25 15.5625 24.25 17.2083V21.125H30.0416L29.1041 27.1667H24.25V41.75C29.1591 40.9746 33.6295 38.4698 36.8539 34.6875C40.0783 30.9054 41.8445 26.095 41.8333 21.125C41.8333 9.60414 32.4583 0.249969 21 0.249969Z" fill="black"/>
</svg>
