<svg width="50" height="50" viewBox="0 0 50 50" fill="none" xmlns="http://www.w3.org/2000/svg">
<path fill-rule="evenodd" clip-rule="evenodd" d="M25 37.5C31.9035 37.5 37.5 31.9035 37.5 25C37.5 18.0964 31.9035 12.5 25 12.5C18.0964 12.5 12.5 18.0964 12.5 25C12.5 31.9035 18.0964 37.5 25 37.5ZM25 33.3333C29.6023 33.3333 33.3333 29.6023 33.3333 25C33.3333 20.3976 29.6023 16.6667 25 16.6667C20.3976 16.6667 16.6667 20.3976 16.6667 25C16.6667 29.6023 20.3976 33.3333 25 33.3333Z" fill="black"/>
<path d="M37.5 10.4167C36.3493 10.4167 35.4166 11.3494 35.4166 12.5C35.4166 13.6506 36.3493 14.5834 37.5 14.5834C38.6506 14.5834 39.5833 13.6506 39.5833 12.5C39.5833 11.3494 38.6506 10.4167 37.5 10.4167Z" fill="black"/>
<path fill-rule="evenodd" clip-rule="evenodd" d="M3.44579 8.90844C2.08337 11.5823 2.08337 15.0827 2.08337 22.0833V27.9166C2.08337 34.9173 2.08337 38.4177 3.44579 41.0914C4.64421 43.4435 6.55646 45.3558 8.9085 46.5541C11.5824 47.9166 15.0827 47.9166 22.0834 47.9166H27.9167C34.9173 47.9166 38.4177 47.9166 41.0915 46.5541C43.4436 45.3558 45.3559 43.4435 46.5542 41.0914C47.9167 38.4177 47.9167 34.9173 47.9167 27.9166V22.0833C47.9167 15.0827 47.9167 11.5823 46.5542 8.90844C45.3559 6.5564 43.4436 4.64415 41.0915 3.44573C38.4177 2.08331 34.9173 2.08331 27.9167 2.08331H22.0834C15.0827 2.08331 11.5824 2.08331 8.9085 3.44573C6.55646 4.64415 4.64421 6.5564 3.44579 8.90844ZM27.9167 6.24998H22.0834C18.5143 6.24998 16.0881 6.25323 14.2127 6.40644C12.386 6.55569 11.4518 6.82621 10.8001 7.15825C9.2321 7.95721 7.95727 9.23204 7.15831 10.8001C6.82627 11.4517 6.55575 12.3859 6.4065 14.2126C6.25329 16.088 6.25004 18.5142 6.25004 22.0833V27.9166C6.25004 31.4858 6.25329 33.9119 6.4065 35.7873C6.55575 37.6141 6.82627 38.5483 7.15831 39.2C7.95727 40.7679 9.2321 42.0427 10.8001 42.8416C11.4518 43.1737 12.386 43.4444 14.2127 43.5935C16.0881 43.7466 18.5143 43.75 22.0834 43.75H27.9167C31.4859 43.75 33.9119 43.7466 35.7873 43.5935C37.6142 43.4444 38.5484 43.1737 39.2 42.8416C40.768 42.0427 42.0427 40.7679 42.8417 39.2C43.1738 38.5483 43.4444 37.6141 43.5936 35.7873C43.7467 33.9119 43.75 31.4858 43.75 27.9166V22.0833C43.75 18.5142 43.7467 16.088 43.5936 14.2126C43.4444 12.3859 43.1738 11.4517 42.8417 10.8001C42.0427 9.23204 40.768 7.95721 39.2 7.15825C38.5484 6.82621 37.6142 6.55569 35.7873 6.40644C33.9119 6.25323 31.4859 6.24998 27.9167 6.24998Z" fill="black"/>
</svg>
