<svg width="50" height="42" viewBox="0 0 50 42" fill="none" xmlns="http://www.w3.org/2000/svg">
<path d="M45.7777 17.9744C46.1884 16.5986 46.3906 15.1394 46.3906 13.5544C46.3906 9.92961 45.0544 6.58342 42.6279 4.13225C40.1314 1.61018 36.6299 0.221313 32.7684 0.221313C29.0537 0.221313 25.5667 1.95657 23.1954 4.87551C20.8241 1.95647 17.3371 0.221313 13.6225 0.221313C9.76104 0.221313 6.25937 1.61018 3.76279 4.13225C1.33633 6.58342 0 9.92971 0 13.5544C0 20.8618 4.2708 25.2161 12.6817 31.1585C18.172 35.0376 21.0603 38.2941 21.8159 39.4669L23.191 41.6642L24.5706 39.474C24.5843 39.4528 25.8833 37.4705 29.4928 34.409C29.834 34.6608 30.1876 34.9159 30.557 35.1771C34.0007 37.6103 35.2214 39.3447 35.3086 39.4725L36.6687 41.7786L38.0605 39.4736C38.1417 39.3543 39.3597 37.6169 42.8128 35.1771C47.5796 31.8092 50 29.3149 50 25.0283C50 21.8907 48.3339 19.2865 45.7777 17.9744ZM23.1956 35.9713C21.763 34.3406 19.0848 31.69 14.5633 28.4954C10.0764 25.3253 7.45088 23.055 5.78457 20.904C4.03916 18.6508 3.26074 16.3841 3.26074 13.5544C3.26074 10.7945 4.26201 8.26291 6.08018 6.42629C7.98691 4.50022 10.5949 3.48215 13.6224 3.48215C16.975 3.48215 20.0907 5.43626 21.7539 8.58196L23.1953 11.3081L24.6367 8.58196C26.2999 5.43635 29.4157 3.48215 32.7684 3.48215C35.7959 3.48215 38.4038 4.50022 40.3104 6.42629C42.1285 8.26291 43.1298 10.7945 43.1298 13.5544C43.1298 14.8352 42.9676 16.0021 42.6381 17.0902C42.3863 17.0691 42.1313 17.0568 41.872 17.0568C39.9182 17.0568 38.0708 17.8498 36.6849 19.2158C35.299 17.8497 33.4516 17.0568 31.4978 17.0568C26.8639 17.0568 23.3695 20.4837 23.3695 25.0281C23.3695 28.0345 24.5618 30.1592 26.9175 32.3221C25.2114 33.8041 24.0043 35.0505 23.1956 35.9713ZM40.9311 32.5139C38.9197 33.935 37.5627 35.1617 36.6849 36.0699C35.807 35.1618 34.45 33.935 32.4387 32.5139C27.9331 29.3308 26.6304 27.6518 26.6304 25.0283C26.6304 22.2548 28.632 20.3178 31.4978 20.3178C33.0368 20.3178 34.472 21.2241 35.2434 22.6832L36.6848 25.4094L38.1262 22.6832C38.8976 21.2242 40.3328 20.3178 41.8718 20.3178C44.7375 20.3178 46.739 22.2549 46.739 25.0283C46.7392 27.6518 45.4364 29.3309 40.9311 32.5139Z" fill="black"/>
</svg>
