<svg width="50" height="50" viewBox="0 0 50 50" fill="none" xmlns="http://www.w3.org/2000/svg">
<g clip-path="url(#clip0_86_2)">
<path fill-rule="evenodd" clip-rule="evenodd" d="M24.69 0C10.9975 0 0 11.0866 0 24.8962C0 35.1463 6.01751 43.7235 14.7325 47.699C14.7325 43.0302 14.7 43.6319 18.2575 28.4509C16.3025 24.5057 17.8225 17.9919 22.2 17.9919C28.275 17.9919 24.1475 26.9988 23.445 30.5432C22.8225 33.2633 24.8975 35.3564 27.3875 35.3564C32.16 35.3564 35.27 29.288 35.27 22.1765C35.27 16.7363 31.5375 12.7612 25.105 12.7612C13.6675 12.7612 10.7675 25.4989 14.7325 29.4971C15.73 31.0071 14.7325 31.0778 14.7325 33.0542C14.04 35.144 8.5075 32.1063 8.5075 24.2688C8.5075 17.1547 14.3175 8.78784 26.1425 8.78784C35.4775 8.78784 41.7025 15.6906 41.7025 23.0139C41.7025 32.8455 36.3075 39.9597 28.425 39.9597C25.7275 39.9597 23.2375 38.494 22.4075 36.8201C20.9 42.6837 20.595 45.6565 18.2575 48.9539C20.54 49.5816 22.8225 50 25.3125 50C39.005 50 50 38.9133 50 25.1062C49.38 11.0874 38.3825 0 24.69 0Z" fill="black"/>
</g>
<defs>
<clipPath id="clip0_86_2">
<rect width="50" height="50" fill="white"/>
</clipPath>
</defs>
</svg>
