<svg width="50" height="48" viewBox="0 0 50 48" fill="none" xmlns="http://www.w3.org/2000/svg">
<path d="M34.578 16.2787C30.9617 16.2787 27.6327 17.5304 25 19.6225C22.3673 17.5303 19.0383 16.2787 15.422 16.2787C6.91816 16.2787 0 23.1969 0 31.7007C0 40.2044 6.91816 47.1226 15.422 47.1226C19.0383 47.1226 22.3673 45.8709 25 43.7788C27.6327 45.871 30.9617 47.1226 34.578 47.1226C43.0818 47.1226 50 40.2044 50 31.7007C50 23.1969 43.0818 16.2787 34.578 16.2787ZM15.4221 43.8617C8.71631 43.8617 3.26084 38.4062 3.26084 31.7006C3.26084 24.995 8.71631 19.5396 15.422 19.5396C18.1289 19.5396 20.6318 20.4291 22.6548 21.9304C20.4695 24.5924 19.1562 27.9959 19.1562 31.7006C19.1562 35.4053 20.4696 38.8089 22.6549 41.4708C20.632 42.9722 18.129 43.8617 15.4221 43.8617ZM22.417 31.7007C22.417 28.8801 23.3824 26.2807 25 24.2155C26.6175 26.2807 27.583 28.88 27.583 31.7007C27.583 34.5214 26.6175 37.1206 25 39.1858C23.3825 37.1205 22.417 34.5212 22.417 31.7007ZM34.578 43.8617C31.8711 43.8617 29.3681 42.9722 27.3452 41.4708C29.5305 38.8089 30.8439 35.4053 30.8439 31.7006C30.8439 27.9959 29.5306 24.5923 27.3453 21.9304C29.3682 20.429 31.8712 19.5395 34.5781 19.5395C41.2837 19.5395 46.7393 24.995 46.7393 31.7005C46.7392 38.4063 41.2837 43.8617 34.578 43.8617Z" fill="black"/>
<path d="M21.625 13.6713C22.6511 14.4649 24.0531 15.3764 24.1123 15.4147L25 15.9909L25.8876 15.4147C25.9468 15.3763 27.3486 14.4649 28.3749 13.6713C30.7384 11.8433 33.4515 9.36611 33.4515 6.41133C33.4515 3.35996 30.969 0.877441 27.9176 0.877441C26.8775 0.877441 25.868 1.17168 25.0001 1.71025C24.1321 1.17158 23.1227 0.877441 22.0825 0.877441C19.0311 0.877441 16.5486 3.35996 16.5486 6.41133C16.5484 9.36611 19.2615 11.8433 21.625 13.6713ZM22.0824 4.13828C22.7303 4.13828 23.3497 4.41689 23.7815 4.90254L25 6.27314L26.2184 4.90264C26.6502 4.41699 27.2696 4.13838 27.9175 4.13838C29.1709 4.13838 30.1906 5.15801 30.1906 6.41143C30.1906 7.56152 28.9084 9.13633 26.3798 11.092C25.9518 11.4229 25.4332 11.7884 25 12.0853C24.5667 11.7885 24.048 11.423 23.6201 11.092C21.0915 9.13633 19.8093 7.56152 19.8093 6.41143C19.8093 5.15801 20.829 4.13828 22.0824 4.13828Z" fill="black"/>
</svg>
